<svg xmlns="http://www.w3.org/2000/svg" width="1200" height="675" viewBox="0 0 1200 675">
  <defs>
    <linearGradient id="bg" x1="0" y1="0" x2="1" y2="1">
      <stop offset="0" stop-color="#04211c"/>
      <stop offset="0.55" stop-color="#0a3d33"/>
      <stop offset="1" stop-color="#062b24"/>
    </linearGradient>
    <linearGradient id="accent" x1="0" y1="0" x2="1" y2="0">
      <stop offset="0" stop-color="#34d399"/>
      <stop offset="1" stop-color="#a7f3d0"/>
    </linearGradient>
  </defs>
  <rect width="1200" height="675" fill="url(#bg)"/>
  <g opacity="0.12" stroke="#6ee7b7" stroke-width="1.5" fill="none">
    <path d="M-50 520 Q 300 420 600 500 T 1250 460"/>
    <path d="M-50 570 Q 300 470 600 550 T 1250 510"/>
    <circle cx="1010" cy="150" r="110"/>
    <circle cx="1010" cy="150" r="160"/>
  </g>
  <g opacity="0.55" fill="#34d399">
    <circle cx="228" cy="238" r="5"/>
    <circle cx="420" cy="238" r="5"/>
    <circle cx="612" cy="238" r="5"/>
  </g>
  <line x1="233" y1="238" x2="415" y2="238" stroke="#34d399" stroke-width="1.5" opacity="0.35"/>
  <line x1="425" y1="238" x2="607" y2="238" stroke="#34d399" stroke-width="1.5" opacity="0.35"/>
  <text x="220" y="330" font-family="Georgia, 'Times New Roman', serif" font-size="86" font-weight="bold" fill="#f0fdf9">UmrahFlow</text>
  <text x="222" y="388" font-family="Helvetica, Arial, sans-serif" font-size="27" letter-spacing="6" fill="url(#accent)">VISA AUTOMATION PLATFORM</text>
  <g font-family="Helvetica, Arial, sans-serif" font-size="19" fill="#a7f3d0" opacity="0.8">
    <text x="222" y="455">WhatsApp Intake</text>
    <text x="420" y="455">AI Passport OCR</text>
    <text x="618" y="455">Review Dashboard</text>
    <text x="836" y="455">Nusuk Bridge</text>
  </g>
</svg>
